<?xml version="1.0" encoding="UTF-8" standalone="no"?>
<svg
   version="1.0"
   width="904.5pt"
   height="108.10145pt"
   viewBox="0 0 904.5 108.10145"
   preserveAspectRatio="xMidYMid"
   id="svg48"
   sodipodi:docname="fiberguardian_simplificado.svg"
   inkscape:version="1.4.2 (f4327f4, 2025-05-13)"
   xmlns:inkscape="http://www.inkscape.org/namespaces/inkscape"
   xmlns:sodipodi="http://sodipodi.sourceforge.net/DTD/sodipodi-0.dtd"
   xmlns="http://www.w3.org/2000/svg"
   xmlns:svg="http://www.w3.org/2000/svg">
  <defs
     id="defs48" />
  <sodipodi:namedview
     id="namedview48"
     pagecolor="#ffffff"
     bordercolor="#000000"
     borderopacity="0.25"
     inkscape:showpageshadow="2"
     inkscape:pageopacity="0.0"
     inkscape:pagecheckerboard="0"
     inkscape:deskcolor="#d1d1d1"
     inkscape:document-units="pt"
     inkscape:zoom="0.58520508"
     inkscape:cx="583.55611"
     inkscape:cy="94.838548"
     inkscape:window-width="1920"
     inkscape:window-height="1013"
     inkscape:window-x="-9"
     inkscape:window-y="-9"
     inkscape:window-maximized="1"
     inkscape:current-layer="g48" />
  <g
     transform="matrix(0.1,0,0,-0.1,-73.471214,584.20025)"
     fill="#000000"
     stroke="none"
     id="g48">
    <path
       d="m 1534.7121,5830.0025 c -54,-29 -71,-98 -39,-159 19,-37 74,-63 115,-54 100,22 130,144 51,205 -28,22 -94,26 -127,8 z"
       fill="#000000"
       id="path7"
       style="fill:#7b1e1e;fill-opacity:1" />
    <path
       d="m 4371.7121,5827.0025 c -95,-21 -150,-51 -223,-124 -107,-107 -149,-220 -149,-400 0,-339 187,-544 495,-542 162,1 261,38 346,128 28,29 59,73 70,97 23,54 38,160 39,278 v 87 l -221,3 c -121,2 -221,2 -222,1 -1,-1 -1,-38 1,-82 l 4,-81 h 119 119 v -32 c 0,-133 -92,-213 -245,-212 -196,1 -303,138 -293,378 3,82 9,111 29,156 51,110 138,165 259,165 93,-1 152,-27 210,-92 l 39,-45 86,47 c 47,25 85,48 85,51 0,3 -13,25 -29,48 -103,149 -308,217 -519,171 z"
       fill="#7b1e1e"
       id="path8" />
    <path
       d="m 8027.7121,5813.0025 c -29,-26 -33,-36 -33,-79 0,-60 27,-96 85,-113 71,-21 140,36 140,116 0,29 -8,45 -34,71 -29,29 -41,34 -80,34 -36,0 -52,-6 -78,-29 z"
       fill="#000000"
       id="path9" />
    <path
       d="m 1827.7121,5307.0025 -3,-525 h 98 97 v 46 46 l 25,-30 c 43,-52 118,-82 201,-82 200,0 336,140 351,362 11,150 -32,274 -122,356 -66,60 -124,82 -219,82 -79,0 -142,-23 -188,-67 l -28,-27 v 182 182 h -105 -105 z m 465,68 c 64,-32 102,-149 86,-267 -16,-117 -72,-176 -167,-176 -124,0 -188,90 -181,256 6,122 50,188 136,204 45,8 87,3 126,-17 z"
       fill="#7B1E1E"
       id="path10"
       style="fill:#000000;fill-opacity:1" />
    <path
       d="m 7669.7121,5652.0025 v -181 l -37,30 c -53,42 -114,61 -198,61 -60,0 -82,-5 -133,-30 -271,-136 -270,-600 3,-734 112,-54 243,-43 338,29 l 47,36 v -41 -40 h 93 94 l -1,525 v 525 h -103 -103 z m -127,-261 c 87,-24 137,-107 137,-228 0,-77 -15,-125 -53,-168 -67,-76 -175,-85 -245,-20 -49,46 -66,95 -66,192 0,124 31,183 114,219 42,18 63,19 113,5 z"
       fill="#000000"
       id="path11"
       style="fill:#7b1e1e;fill-opacity:1" />
    <path
       d="m 734.71214,5302.0025 v -520 h 113 112 v 200 200 l 202.99996,2 202,3 v 87 88 h -202 -202.99996 v 138 137 h 222.99996 c 205,0 222,1 221,18 -1,9 -2,51 -3,92 l -1,75 h -332 -332.99996 z"
       fill="#7B1E1E"
       id="path12"
       style="fill:#000000;fill-opacity:1" />
    <path
       d="m 2901.7121,5540.0025 c -127,-43 -213,-158 -231,-308 -27,-209 57,-378 218,-442 46,-18 76,-22 171,-23 110,0 118,1 181,32 68,34 158,118 143,133 -5,5 -44,22 -87,39 l -79,31 -29,-24 c -15,-13 -45,-30 -65,-36 -51,-17 -146,-7 -182,19 -35,25 -62,77 -62,120 v 31 h 261 262 l -6,93 c -10,163 -69,267 -185,324 -79,38 -217,44 -310,11 z m 225,-158 c 31,-18 53,-50 67,-97 l 7,-23 h -161 -162 l 6,26 c 10,39 36,75 71,95 41,26 129,25 172,-1 z"
       fill="#000000"
       id="path13" />
    <path
       d="m 3813.7121,5551.0025 c -18,-5 -54,-29 -80,-53 l -49,-43 v 41 41 l -97,3 -98,3 v -381 -380 h 99 99 l 4,233 c 3,211 5,235 23,266 35,59 67,75 156,80 l 79,3 v 99 99 l -52,-1 c -29,0 -67,-5 -84,-10 z"
       fill="#7B1E1E"
       id="path14"
       style="fill:#000000;fill-opacity:1" />
    <path
       d="m 6064.7121,5551.0025 c -82,-20 -165,-93 -194,-172 -8,-21 -8,-29 2,-32 21,-7 170,-35 171,-33 40,82 69,100 149,95 69,-4 104,-32 114,-90 5,-33 3,-37 -23,-47 -15,-6 -77,-18 -137,-25 -216,-29 -306,-102 -307,-248 -1,-208 222,-304 425,-182 48,29 55,31 55,15 0,-46 8,-50 104,-50 h 91 l -3,273 c -4,302 -11,347 -63,410 -17,21 -54,50 -83,64 -44,23 -65,27 -156,30 -58,1 -123,-2 -145,-8 z m 252,-464 c -11,-105 -76,-165 -179,-165 -81,0 -123,49 -99,113 15,38 63,64 145,77 39,7 85,15 101,20 17,4 32,9 34,9 2,1 1,-24 -2,-54 z"
       fill="#000000"
       id="path15"
       style="fill:#7b1e1e;fill-opacity:1" />
    <path
       d="m 6946.7121,5548.0025 c -41,-15 -69,-35 -104,-76 l -23,-25 v 48 47 h -95 -95 v -342 c 0,-189 -3,-360 -6,-380 l -7,-38 h 106 106 l 3,238 c 3,215 5,240 23,270 28,46 87,72 163,72 h 62 v 100 100 h -47 c -27,-1 -65,-7 -86,-14 z"
       fill="#7b1e1e"
       id="path16" />
    <path
       d="m 8495.7121,5537.0025 c -32,-13 -74,-39 -93,-57 -38,-37 -80,-116 -67,-127 5,-5 36,-13 69,-20 33,-6 70,-14 82,-17 17,-5 25,1 38,25 22,43 70,71 122,71 78,0 115,-28 129,-98 6,-28 3,-33 -22,-42 -16,-6 -67,-16 -114,-21 -142,-17 -215,-43 -270,-98 -38,-38 -50,-59 -60,-103 -23,-103 24,-213 112,-260 64,-34 192,-32 268,5 30,14 65,34 78,43 21,16 22,15 22,-4 0,-49 7,-52 104,-52 h 91 l -2,257 c -1,142 -7,281 -13,309 -14,68 -52,123 -109,161 -61,42 -108,53 -216,53 -72,0 -102,-5 -149,-25 z m 289,-472 c -7,-48 -49,-104 -96,-129 -15,-7 -52,-14 -82,-14 -69,0 -96,20 -104,75 -4,34 -1,44 22,67 26,27 47,33 195,61 75,14 76,12 65,-60 z"
       fill="#000000"
       id="path17"
       style="fill:#7b1e1e;fill-opacity:1" />
    <path
       d="m 9394.7121,5543.0025 c -23,-10 -53,-33 -68,-50 l -27,-33 v 41 41 h -100 -100 v -380 -380 h 104 104 l -2,248 c -1,239 0,248 22,289 12,24 35,49 52,58 38,19 109,19 138,-1 46,-32 50,-53 53,-331 l 4,-263 h 103 102 v 263 c 0,290 -8,350 -58,422 -16,23 -49,50 -81,67 -45,24 -65,28 -130,28 -52,0 -89,-6 -116,-19 z"
       fill="#7b1e1e"
       id="path18" />
    <path
       d="m 1489.7121,5162.0025 v -380 h 106 106 l -4,380 -3,380 h -102 -103 z"
       fill="#000000"
       id="path19" />
    <path
       d="m 5059.7121,5250.0025 c 0,-273 2,-296 21,-338 25,-55 62,-95 114,-123 33,-18 56,-22 135,-22 102,1 138,12 193,63 l 27,26 v -37 -37 h 100 100 v 380 380 h -99 -100 l -3,-242 c -3,-219 -5,-247 -23,-283 -53,-105 -204,-116 -250,-18 -13,28 -16,77 -16,288 v 255 h -99 -100 z"
       fill="#7b1e1e"
       id="path20" />
    <path
       d="m 8009.7121,5162.0025 v -380 h 100 100 v 380 380 h -100 -100 z"
       fill="#000000"
       id="path21"
       style="fill:#7b1e1e;fill-opacity:1" />
  </g>
</svg>
