<?xml version="1.0" encoding="UTF-8" standalone="no"?>
<svg
   version="1.0"
   viewBox="0 0 904.5 522.71045"
   id="svg21"
   sodipodi:docname="logo-fiberguardian.svg"
   width="904.5"
   height="522.71045"
   inkscape:version="1.4.2 (f4327f4, 2025-05-13)"
   inkscape:export-filename="logo-fiberguardian.png"
   inkscape:export-xdpi="96"
   inkscape:export-ydpi="96"
   xmlns:inkscape="http://www.inkscape.org/namespaces/inkscape"
   xmlns:sodipodi="http://sodipodi.sourceforge.net/DTD/sodipodi-0.dtd"
   xmlns="http://www.w3.org/2000/svg"
   xmlns:svg="http://www.w3.org/2000/svg">
  <defs
     id="defs21" />
  <sodipodi:namedview
     id="namedview21"
     pagecolor="#ffffff"
     bordercolor="#000000"
     borderopacity="0.25"
     inkscape:showpageshadow="2"
     inkscape:pageopacity="0.0"
     inkscape:pagecheckerboard="0"
     inkscape:deskcolor="#d1d1d1"
     showgrid="false"
     inkscape:zoom="0.77636719"
     inkscape:cx="451.46164"
     inkscape:cy="284.01509"
     inkscape:window-width="1920"
     inkscape:window-height="1013"
     inkscape:window-x="-9"
     inkscape:window-y="-9"
     inkscape:window-maximized="1"
     inkscape:current-layer="svg21" />
  <g
     fill="#000000"
     stroke="none"
     transform="matrix(0.1,0,0,-0.1,-64.5,838.60902)"
     id="g21">
    <path
       d="m 3445,8384 c -16,-2 -70,-9 -120,-15 -418,-51 -845,-223 -1167,-471 -100,-77 -259,-228 -339,-320 l -49,-56 97,33 c 195,66 459,120 702,145 129,13 441,13 541,0 104,-14 250,-42 250,-49 0,-3 -28,-24 -62,-46 -175,-112 -329,-331 -390,-550 -19,-69 -22,-106 -22,-275 -1,-183 1,-201 27,-294 93,-336 320,-596 687,-789 140,-74 334,-140 480,-162 45,-7 44,-7 -32,32 -249,130 -421,294 -558,534 -130,228 -175,388 -167,604 12,347 169,582 472,708 62,25 161,58 228,76 l 38,10 -69,-64 c -159,-148 -258,-349 -281,-573 -28,-272 71,-539 281,-758 180,-187 380,-285 642,-315 178,-20 378,20 532,106 146,82 310,231 395,360 90,136 161,322 175,460 4,36 8,65 10,65 6,0 409,-212 417,-219 21,-21 -104,-304 -196,-441 -66,-100 -250,-281 -362,-356 -181,-123 -450,-237 -625,-265 -41,-7 -79,-17 -85,-22 -15,-14 317,-1 410,16 484,91 885,328 1150,682 32,44 62,83 65,88 4,4 55,-13 113,-38 143,-59 305,-110 441,-137 87,-18 145,-23 271,-22 187,0 283,19 422,84 247,115 431,336 526,631 46,142 48,141 -42,58 -279,-260 -623,-314 -1027,-164 -315,118 -537,274 -1061,743 -199,178 -328,279 -508,398 -433,285 -907,462 -1465,546 -106,15 -198,20 -425,23 -159,2 -303,1 -320,-1 z m 725,-1031 c -178,-194 -239,-342 -240,-584 0,-64 3,-119 7,-123 4,-3 28,15 55,41 l 48,47 v 71 c 0,94 23,183 71,283 32,67 59,103 141,187 55,58 105,105 111,105 6,0 -3,-15 -20,-32 -129,-138 -214,-317 -229,-483 l -7,-76 56,33 c 48,28 58,38 62,68 29,173 89,281 215,387 46,40 46,36 -6,-37 -155,-219 -175,-479 -57,-720 50,-103 168,-220 273,-272 121,-60 216,-82 350,-82 133,-1 207,16 315,70 l 70,34 -35,-30 c -55,-48 -171,-99 -262,-117 -125,-23 -239,-12 -423,42 -15,5 -39,-11 -99,-67 l -79,-72 69,-18 c 119,-30 249,-41 354,-29 52,6 95,9 97,7 2,-2 -23,-11 -54,-21 -87,-26 -280,-32 -383,-11 -240,49 -437,179 -566,372 -234,351 -175,771 147,1041 41,35 78,63 82,63 5,0 -24,-35 -63,-77 z m 1014,-255 c 26,-8 60,-31 91,-63 124,-124 90,-316 -70,-391 -134,-63 -289,9 -332,156 -54,185 121,354 311,298 z"
       fill="#000000"
       id="path1" />
    <path
       d="m 4164,6738 c -27,-18 -85,-67 -128,-109 l -79,-75 17,-52 c 10,-29 21,-52 25,-52 3,0 36,29 71,66 36,36 89,83 117,106 52,40 53,41 47,82 -11,68 -15,70 -70,34 z"
       fill="#7b1e1e"
       id="path2" />
    <path
       d="m 4142,6476 -106,-104 33,-50 34,-49 101,101 101,101 -20,52 c -11,29 -24,53 -28,53 -5,0 -56,-47 -115,-104 z"
       fill="#000000"
       id="path3" />
    <path
       d="m 4274,6338 c -115,-120 -112,-114 -83,-144 49,-53 52,-52 144,42 l 84,87 -36,43 c -19,24 -36,44 -37,44 -1,0 -33,-33 -72,-72 z"
       fill="#7b1e1e"
       id="path4" />
    <path
       d="m 4397,6192 c -42,-42 -77,-81 -77,-85 0,-5 20,-17 45,-28 l 46,-20 79,72 c 44,39 80,73 80,75 0,4 -87,64 -92,64 -2,0 -38,-35 -81,-78 z"
       fill="#000000"
       id="path5" />
    <path
       d="m 2920,6056 c 0,-5 7,-34 15,-67 49,-188 209,-456 382,-639 201,-213 525,-428 822,-545 117,-45 318,-97 471,-121 176,-28 520,-25 699,5 481,82 889,283 1331,655 92,77 432,407 427,413 -2,2 -96,-33 -208,-78 -740,-294 -1114,-413 -1484,-469 -201,-31 -614,-39 -814,-16 -321,38 -609,120 -906,260 -272,129 -552,349 -686,540 -27,38 -49,66 -49,62 z"
       fill="#7b1e1e"
       id="path6" />
    <path
       d="m 1445,4228 c -54,-29 -71,-98 -39,-159 19,-37 74,-63 115,-54 100,22 130,144 51,205 -28,22 -94,26 -127,8 z"
       fill="#7b1e1e"
       id="path7" />
    <path
       d="m 4282,4225 c -95,-21 -150,-51 -223,-124 -107,-107 -149,-220 -149,-400 0,-339 187,-544 495,-542 162,1 261,38 346,128 28,29 59,73 70,97 23,54 38,160 39,278 v 87 l -221,3 c -121,2 -221,2 -222,1 -1,-1 -1,-38 1,-82 l 4,-81 h 119 119 v -32 c 0,-133 -92,-213 -245,-212 -196,1 -303,138 -293,378 3,82 9,111 29,156 51,110 138,165 259,165 93,-1 152,-27 210,-92 l 39,-45 86,47 c 47,25 85,48 85,51 0,3 -13,25 -29,48 -103,149 -308,217 -519,171 z"
       fill="#7b1e1e"
       id="path8" />
    <path
       d="m 7938,4211 c -29,-26 -33,-36 -33,-79 0,-60 27,-96 85,-113 71,-21 140,36 140,116 0,29 -8,45 -34,71 -29,29 -41,34 -80,34 -36,0 -52,-6 -78,-29 z"
       fill="#000000"
       id="path9" />
    <path
       d="m 1738,3705 -3,-525 h 98 97 v 46 46 l 25,-30 c 43,-52 118,-82 201,-82 200,0 336,140 351,362 11,150 -32,274 -122,356 -66,60 -124,82 -219,82 -79,0 -142,-23 -188,-67 l -28,-27 v 182 182 h -105 -105 z m 465,68 c 64,-32 102,-149 86,-267 -16,-117 -72,-176 -167,-176 -124,0 -188,90 -181,256 6,122 50,188 136,204 45,8 87,3 126,-17 z"
       fill="#000000"
       id="path10" />
    <path
       d="m 7580,4050 v -181 l -37,30 c -53,42 -114,61 -198,61 -60,0 -82,-5 -133,-30 -271,-136 -270,-600 3,-734 112,-54 243,-43 338,29 l 47,36 v -41 -40 h 93 94 l -1,525 v 525 h -103 -103 z m -127,-261 c 87,-24 137,-107 137,-228 0,-77 -15,-125 -53,-168 -67,-76 -175,-85 -245,-20 -49,46 -66,95 -66,192 0,124 31,183 114,219 42,18 63,19 113,5 z"
       fill="#7b1e1e"
       id="path11" />
    <path
       d="m 645,3700 v -520 h 113 112 v 200 200 l 203,2 202,3 v 87 88 H 1073 870 v 138 137 h 223 c 205,0 222,1 221,18 -1,9 -2,51 -3,92 l -1,75 H 978 645 Z"
       fill="#000000"
       id="path12" />
    <path
       d="m 2812,3938 c -127,-43 -213,-158 -231,-308 -27,-209 57,-378 218,-442 46,-18 76,-22 171,-23 110,0 118,1 181,32 68,34 158,118 143,133 -5,5 -44,22 -87,39 l -79,31 -29,-24 c -15,-13 -45,-30 -65,-36 -51,-17 -146,-7 -182,19 -35,25 -62,77 -62,120 v 31 h 261 262 l -6,93 c -10,163 -69,267 -185,324 -79,38 -217,44 -310,11 z m 225,-158 c 31,-18 53,-50 67,-97 l 7,-23 h -161 -162 l 6,26 c 10,39 36,75 71,95 41,26 129,25 172,-1 z"
       fill="#000000"
       id="path13" />
    <path
       d="m 3724,3949 c -18,-5 -54,-29 -80,-53 l -49,-43 v 41 41 l -97,3 -98,3 v -381 -380 h 99 99 l 4,233 c 3,211 5,235 23,266 35,59 67,75 156,80 l 79,3 v 99 99 l -52,-1 c -29,0 -67,-5 -84,-10 z"
       fill="#000000"
       id="path14" />
    <path
       d="m 5975,3949 c -82,-20 -165,-93 -194,-172 -8,-21 -8,-29 2,-32 21,-7 170,-35 171,-33 40,82 69,100 149,95 69,-4 104,-32 114,-90 5,-33 3,-37 -23,-47 -15,-6 -77,-18 -137,-25 -216,-29 -306,-102 -307,-248 -1,-208 222,-304 425,-182 48,29 55,31 55,15 0,-46 8,-50 104,-50 h 91 l -3,273 c -4,302 -11,347 -63,410 -17,21 -54,50 -83,64 -44,23 -65,27 -156,30 -58,1 -123,-2 -145,-8 z m 252,-464 c -11,-105 -76,-165 -179,-165 -81,0 -123,49 -99,113 15,38 63,64 145,77 39,7 85,15 101,20 17,4 32,9 34,9 2,1 1,-24 -2,-54 z"
       fill="#7b1e1e"
       id="path15" />
    <path
       d="m 6857,3946 c -41,-15 -69,-35 -104,-76 l -23,-25 v 48 47 h -95 -95 v -342 c 0,-189 -3,-360 -6,-380 l -7,-38 h 106 106 l 3,238 c 3,215 5,240 23,270 28,46 87,72 163,72 h 62 v 100 100 h -47 c -27,-1 -65,-7 -86,-14 z"
       fill="#7b1e1e"
       id="path16" />
    <path
       d="m 8406,3935 c -32,-13 -74,-39 -93,-57 -38,-37 -80,-116 -67,-127 5,-5 36,-13 69,-20 33,-6 70,-14 82,-17 17,-5 25,1 38,25 22,43 70,71 122,71 78,0 115,-28 129,-98 6,-28 3,-33 -22,-42 -16,-6 -67,-16 -114,-21 -142,-17 -215,-43 -270,-98 -38,-38 -50,-59 -60,-103 -23,-103 24,-213 112,-260 64,-34 192,-32 268,5 30,14 65,34 78,43 21,16 22,15 22,-4 0,-49 7,-52 104,-52 h 91 l -2,257 c -1,142 -7,281 -13,309 -14,68 -52,123 -109,161 -61,42 -108,53 -216,53 -72,0 -102,-5 -149,-25 z m 289,-472 c -7,-48 -49,-104 -96,-129 -15,-7 -52,-14 -82,-14 -69,0 -96,20 -104,75 -4,34 -1,44 22,67 26,27 47,33 195,61 75,14 76,12 65,-60 z"
       fill="#7b1e1e"
       id="path17" />
    <path
       d="m 9305,3941 c -23,-10 -53,-33 -68,-50 l -27,-33 v 41 41 h -100 -100 v -380 -380 h 104 104 l -2,248 c -1,239 0,248 22,289 12,24 35,49 52,58 38,19 109,19 138,-1 46,-32 50,-53 53,-331 l 4,-263 h 103 102 v 263 c 0,290 -8,350 -58,422 -16,23 -49,50 -81,67 -45,24 -65,28 -130,28 -52,0 -89,-6 -116,-19 z"
       fill="#7b1e1e"
       id="path18" />
    <path
       d="m 1400,3560 v -380 h 106 106 l -4,380 -3,380 h -102 -103 z"
       fill="#000000"
       id="path19" />
    <path
       d="m 4970,3648 c 0,-273 2,-296 21,-338 25,-55 62,-95 114,-123 33,-18 56,-22 135,-22 102,1 138,12 193,63 l 27,26 v -37 -37 h 100 100 v 380 380 h -99 -100 l -3,-242 c -3,-219 -5,-247 -23,-283 -53,-105 -204,-116 -250,-18 -13,28 -16,77 -16,288 v 255 h -99 -100 z"
       fill="#7b1e1e"
       id="path20" />
    <path
       d="m 7920,3560 v -380 h 100 100 v 380 380 h -100 -100 z"
       fill="#7b1e1e"
       id="path21" />
  </g>
</svg>
